0
SECTION
2
HEADER
9
$INSUNITS
70
4
9
$ACADVER
1
AC1014
9
$HANDSEED
5
FFFF
0
ENDSEC
0
SECTION
2
TABLES
0
TABLE
2
VPORT
5
8
100
AcDbSymbolTable
0
ENDTAB
0
TABLE
2
LTYPE
5
5
100
AcDbSymbolTable
0
LTYPE
5
14
100
AcDbSymbolTableRecord
100
AcDbLinetypeTableRecord
2
BYBLOCK
70
0
0
LTYPE
5
15
100
AcDbSymbolTableRecord
100
AcDbLinetypeTableRecord
2
BYLAYER
70
0
0
ENDTAB
0
TABLE
2
LAYER
5
2
100
AcDbSymbolTable
70
2
0
LAYER
5
50
100
AcDbSymbolTableRecord
100
AcDbLayerTableRecord
2
0
70
0
6
CONTINUOUS
0
ENDTAB
0
TABLE
2
STYLE
5
3
100
AcDbSymbolTable
70
1
0
STYLE
5
11
100
AcDbSymbolTableRecord
100
AcDbTextStyleTableRecord
2
STANDARD
70
0
0
ENDTAB
0
TABLE
2
VIEW
5
6
100
AcDbSymbolTable
70
0
0
ENDTAB
0
TABLE
2
UCS
5
7
100
AcDbSymbolTable
70
0
0
ENDTAB
0
TABLE
2
APPID
5
9
100
AcDbSymbolTable
70
2
0
APPID
5
12
100
AcDbSymbolTableRecord
100
AcDbRegAppTableRecord
2
ACAD
70
0
0
ENDTAB
0
TABLE
2
DIMSTYLE
5
A
100
AcDbSymbolTable
70
1
0
ENDTAB
0
TABLE
2
BLOCK_RECORD
5
1
100
AcDbSymbolTable
70
1
0
BLOCK_RECORD
5
1F
100
AcDbSymbolTableRecord
100
AcDbBlockTableRecord
2
*MODEL_SPACE
0
BLOCK_RECORD
5
1B
100
AcDbSymbolTableRecord
100
AcDbBlockTableRecord
2
*PAPER_SPACE
0
ENDTAB
0
ENDSEC
0
SECTION
2
BLOCKS
0
BLOCK
5
20
100
AcDbEntity
100
AcDbBlockBegin
2
*MODEL_SPACE
0
ENDBLK
5
21
100
AcDbEntity
100
AcDbBlockEnd
0
BLOCK
5
1C
100
AcDbEntity
100
AcDbBlockBegin
2
*PAPER_SPACE
0
ENDBLK
5
1D
100
AcDbEntity
100
AcDbBlockEnd
0
ENDSEC
0
SECTION
2
ENTITIES
0
CIRCLE
5
100
100
AcDbEntity
8
0
100
AcDbCircle
10
189.32659337460325
20
112.67192974583885
30
0
40
12.5
210
0
220
-0
230
1
0
LINE
5
101
100
AcDbEntity
8
0
100
AcDbLine
10
223.31433605269919
20
192.00000000000003
30
0
11
127.51433605270026
21
192.00000000000003
31
0
0
LINE
5
102
100
AcDbEntity
8
0
100
AcDbLine
10
127.51433605270026
20
-192.00000000000003
30
0
11
223.31433605269919
21
-192.00000000000003
31
0
0
LINE
5
103
100
AcDbEntity
8
0
100
AcDbLine
10
223.31433605269919
20
-192.00000000000003
30
0
11
223.31433605269919
21
192.00000000000003
31
0
0
LINE
5
104
100
AcDbEntity
8
0
100
AcDbLine
10
127.51433605270026
20
192.00000000000003
30
0
11
124.79999999999836
21
192.00000000000003
31
0
0
LINE
5
105
100
AcDbEntity
8
0
100
AcDbLine
10
124.79999999999836
20
-192.00000000000003
30
0
11
127.51433605270026
21
-192.00000000000003
31
0
0
LINE
5
106
100
AcDbEntity
8
0
100
AcDbLine
10
124.79999999999836
20
192.00000000000003
30
0
11
-124.79999999999836
21
192.00000000000003
31
0
0
LINE
5
107
100
AcDbEntity
8
0
100
AcDbLine
10
-124.79999999999836
20
-192.00000000000003
30
0
11
124.79999999999836
21
-192.00000000000003
31
0
0
LINE
5
108
100
AcDbEntity
8
0
100
AcDbLine
10
-124.79999999999836
20
192.00000000000003
30
0
11
-127.51433605270054
21
192.00000000000003
31
0
0
LINE
5
109
100
AcDbEntity
8
0
100
AcDbLine
10
-127.51433605270054
20
-192.00000000000003
30
0
11
-124.79999999999836
21
-192.00000000000003
31
0
0
LINE
5
110
100
AcDbEntity
8
0
100
AcDbLine
10
-127.51433605270054
20
192.00000000000003
30
0
11
-156.34477171698921
21
192.00000000000003
31
0
0
LINE
5
111
100
AcDbEntity
8
0
100
AcDbLine
10
-156.34477171698921
20
-192.00000000000003
30
0
11
-127.51433605270054
21
-192.00000000000003
31
0
0
LINE
5
112
100
AcDbEntity
8
0
100
AcDbLine
10
-156.34477171698921
20
192.00000000000003
30
0
11
-158.71976003668905
21
192.00000000000003
31
0
0
LINE
5
113
100
AcDbEntity
8
0
100
AcDbLine
10
-158.71976003668905
20
-192.00000000000003
30
0
11
-156.34477171698921
21
-192.00000000000003
31
0
0
LWPOLYLINE
5
114
100
AcDbEntity
8
0
100
AcDbPolyline
90
16
70
1
43
0.0
10
-291.57084740644189
20
-75.39999999999992
10
-311.57084740644189
20
-75.39999999999992
10
-311.57084740644189
20
77.600000000000051
10
-292.57084740644194
20
77.600000000000051
10
-292.57084740644194
20
126.50000000000003
10
-254.57084740644189
20
126.50000000000003
10
-254.57084740644189
20
131.50000000000003
10
-233.07084740644189
20
131.50000000000003
10
-233.07084740644189
20
121.50000000000006
10
-214.07084740644191
20
121.50000000000006
10
-214.07084740644191
20
-128.89999999999992
10
-251.57084740644191
20
-128.89999999999992
10
-251.57084740644191
20
-141.39999999999992
10
-272.57084740644194
20
-141.39999999999992
10
-272.57084740644194
20
-122.39999999999995
10
-291.57084740644189
20
-122.39999999999995
0
LINE
5
115
100
AcDbEntity
8
0
100
AcDbLine
10
-158.71976003668905
20
192.00000000000003
30
0
11
-319.76541343204144
21
192.00000000000003
31
0
0
LINE
5
116
100
AcDbEntity
8
0
100
AcDbLine
10
-319.76541343204144
20
-192.00000000000003
30
0
11
-158.71976003668905
21
-192.00000000000003
31
0
0
LINE
5
117
100
AcDbEntity
8
0
100
AcDbLine
10
-319.76541343204144
20
192.00000000000003
30
0
11
-322.14040175174136
21
192.00000000000003
31
0
0
LINE
5
118
100
AcDbEntity
8
0
100
AcDbLine
10
-322.14040175174136
20
-192.00000000000003
30
0
11
-319.76541343204144
21
-192.00000000000003
31
0
0
LINE
5
119
100
AcDbEntity
8
0
100
AcDbLine
10
-322.14040175174136
20
192.00000000000003
30
0
11
-354.15561958388651
21
192.00000000000003
31
0
0
LINE
5
120
100
AcDbEntity
8
0
100
AcDbLine
10
-354.15561958388651
20
192.00000000000003
30
0
11
-354.15561958388651
21
-192.00000000000003
31
0
0
LINE
5
121
100
AcDbEntity
8
0
100
AcDbLine
10
-354.15561958388651
20
-192.00000000000003
30
0
11
-322.14040175174136
21
-192.00000000000003
31
0
0
ENDSEC
0
SECTION
2
OBJECTS
0
DICTIONARY
5
C
100
AcDbDictionary
3
ACAD_GROUP
350
D
3
ACAD_MLINESTYLE
350
17
0
DICTIONARY
5
D
100
AcDbDictionary
0
DICTIONARY
5
1A
330
C
100
AcDbDictionary
0
DICTIONARY
5
17
100
AcDbDictionary
0
ENDSEC
0
EOF
